<?xml version="1.0" standalone="no"?>
<!DOCTYPE svg PUBLIC "-//W3C//DTD SVG 20010904//EN"
 "http://www.w3.org/TR/2001/REC-SVG-20010904/DTD/svg10.dtd">
<svg version="1.0" xmlns="http://www.w3.org/2000/svg"
 width="200.000000pt" height="200.000000pt" viewBox="0 0 200.000000 200.000000"
 preserveAspectRatio="xMidYMid meet">
<metadata>
Created by potrace 1.14, written by Peter Selinger 2001-2017
</metadata>
<g transform="translate(0.000000,200.000000) scale(0.100000,-0.100000)"
fill="#000000" stroke="none">
<path d="M0 1000 l0 -1000 1000 0 1000 0 0 1000 0 1000 -1000 0 -1000 0 0
-1000z m1244 670 c94 -107 211 -242 260 -300 49 -58 94 -109 101 -115 7 -5 58
-66 115 -135 57 -69 111 -132 121 -140 24 -21 59 -81 59 -102 0 -45 -51 -34
-118 27 -59 53 -47 58 -129 -56 -27 -37 -70 -94 -96 -128 l-49 -62 17 -67
c104 -419 99 -394 80 -408 -10 -7 -25 -10 -37 -5 -19 7 -33 38 -88 189 -11 29
-28 76 -38 105 -11 28 -27 73 -37 99 l-17 48 -476 0 -477 0 -105 -181 c-133
-228 -155 -259 -181 -259 -19 0 -21 4 -14 38 11 60 87 228 235 517 76 149 149
290 162 315 14 25 42 77 63 115 20 39 45 84 55 100 10 17 29 50 42 75 37 66
92 162 135 235 16 28 32 57 36 65 4 8 20 35 36 60 17 25 43 69 60 98 17 28 41
63 53 77 27 32 15 43 232 -205z"/>
<path d="M1119 1700 c18 -46 59 -154 112 -295 29 -77 63 -169 76 -205 14 -36
40 -105 58 -155 18 -49 38 -101 43 -115 6 -14 20 -51 32 -83 l23 -57 23 32
c13 17 27 34 32 37 4 3 38 45 74 92 66 87 66 87 48 110 -10 13 -75 96 -145
184 -70 88 -158 201 -197 250 -69 89 -122 154 -166 204 l-22 26 9 -25z"/>
<path d="M982 1658 c-12 -24 -39 -74 -60 -113 -22 -38 -54 -97 -72 -130 -45
-83 -109 -197 -120 -215 -6 -8 -18 -31 -28 -50 -30 -56 -83 -153 -102 -185
-10 -16 -31 -55 -48 -85 -16 -30 -39 -72 -51 -93 -11 -21 -21 -40 -21 -42 0
-3 196 -5 435 -5 l435 0 -7 33 c-3 17 -11 43 -18 57 -7 14 -17 41 -23 60 -6
19 -34 100 -62 180 -28 80 -57 163 -65 185 -7 22 -34 99 -60 170 -26 72 -49
139 -52 150 -9 37 -47 125 -53 125 -3 0 -16 -19 -28 -42z m18 -204 c13 -15 7
-121 -20 -349 -12 -97 -38 -126 -84 -92 -16 12 -16 20 -5 102 6 50 22 143 35
208 27 141 43 169 74 131z m-61 -514 c28 -15 45 -64 31 -90 -25 -46 -105 -50
-116 -5 -7 28 2 73 18 92 12 15 42 17 67 3z"/>
</g>
</svg>
